<svg width="29" height="29" viewBox="0 0 29 29" fill="none" xmlns="http://www.w3.org/2000/svg">
<rect x="0.314453" y="0.24585" width="28.0297" height="28.0297" rx="2.5" fill="white"/>
<g clip-path="url(#clip0_1052_42266)">
<path d="M3.88536 14.2893L8.68317 16.0799L10.5402 22.0522C10.659 22.4347 11.1268 22.5761 11.4372 22.3223L14.1116 20.142C14.3919 19.9136 14.7912 19.9022 15.0842 20.1149L19.9078 23.617C20.24 23.8584 20.7105 23.6764 20.7938 23.2751L24.3273 6.27797C24.4182 5.8396 23.9875 5.4739 23.5701 5.63534L3.87973 13.2313C3.39382 13.4187 3.39805 14.1066 3.88536 14.2893ZM10.2409 15.1267L19.6177 9.35158C19.7862 9.2481 19.9596 9.47596 19.8148 9.61019L12.0763 16.8035C11.8043 17.0567 11.6289 17.3956 11.5792 17.7633L11.3156 19.7169C11.2806 19.9777 10.9143 20.0036 10.8423 19.7511L9.82845 16.1888C9.71233 15.7825 9.88155 15.3485 10.2409 15.1267Z" fill="#003C66"/>
</g>
<defs>
<clipPath id="clip0_1052_42266">
<rect width="20.822" height="20.822" fill="white" transform="translate(3.51758 4.25)"/>
</clipPath>
</defs>
</svg>
